<svg width="436" height="130" viewBox="0 0 436 130" fill="none" xmlns="http://www.w3.org/2000/svg">
<path d="M106.376 108.944H86.3965V101.084V92.7783C86.5331 86.7918 88.5588 82.5252 92.4735 79.9824C96.3882 77.4359 99.992 76.1663 103.288 76.1663H111.323H114.619H131.303V84.0256V92.3316C131.166 98.3182 129.14 102.585 125.226 105.128C121.311 107.67 117.707 108.944 114.411 108.944H106.376ZM111.528 84.4723H106.995C103.425 84.4723 100.849 85.0717 99.2712 86.2668C97.6931 87.4656 96.9006 89.7106 96.9006 93.0017V100.634H103.08H106.376H110.701C114.271 100.634 116.846 100.034 118.425 98.8394C120.003 97.6406 120.792 95.3956 120.792 92.1045V84.4723H114.612H111.524H111.528Z" stroke="#5432B9" stroke-width="1.74321" stroke-miterlimit="22.9256" stroke-linejoin="round"/>
<path d="M156.947 108.944H136.967V101.084V92.7783C137.103 86.7918 139.129 82.5252 143.044 79.9824C146.958 77.4359 150.562 76.1663 153.859 76.1663H161.893H165.189H181.873V84.0256V92.3316C181.736 98.3182 179.711 102.585 175.796 105.128C171.881 107.67 168.277 108.944 164.981 108.944H156.947ZM162.098 84.4723H157.565C153.995 84.4723 151.42 85.0717 149.842 86.2668C148.263 87.4656 147.471 89.7106 147.471 93.0017V100.634H153.65H156.947H161.271C164.841 100.634 167.417 100.034 168.995 98.8394C170.573 97.6406 171.362 95.3956 171.362 92.1045V84.4723H165.183H162.095H162.098Z" stroke="#5432B9" stroke-width="1.74321" stroke-miterlimit="22.9256" stroke-linejoin="round"/>
<path d="M187.533 96.5944V92.7783C187.669 86.7918 189.695 82.5252 193.61 79.9824C197.524 77.4359 201.128 76.1663 204.425 76.1663H212.459H215.755H232.439V84.4723H215.755H208.134C204.565 84.4723 201.989 85.0717 200.411 86.2668C198.833 87.4656 197.972 88.2139 197.835 88.5118H201.955H218.847H221.935H232.439V92.3279C232.302 98.3144 230.277 102.581 226.362 105.124C222.447 107.667 218.843 108.94 215.547 108.94H207.513H187.533V100.634H204.216H207.513H211.837C215.407 100.634 217.983 100.034 219.561 98.8394C221.139 97.6406 221.928 96.8923 221.928 96.5944H216.162H187.529H187.533Z" stroke="#5432B9" stroke-width="1.74321" stroke-miterlimit="22.9256" stroke-linejoin="round"/>
<path d="M256.436 108.944C253.31 108.944 251.732 107.149 251.698 103.556L251.749 88.5155L251.698 84.4761H246.858H238.103V76.2817H247.114L274.045 76.3376H283.057V84.4761H268.689H260.761V98.6197C260.761 100.414 261.447 101.315 262.82 101.315H269.721V108.947H256.436V108.944Z" stroke="#5432B9" stroke-width="1.74321" stroke-miterlimit="22.9256" stroke-linejoin="round"/>
<path d="M324.564 84.4723H309.322C305.752 84.4723 303.177 85.0717 301.598 86.2668C300.02 87.4656 299.228 89.558 299.228 92.5512H303.552H324.564V84.4686V84.4723ZM299.228 100.805V108.944H288.724V101.084V92.7783C288.86 86.7918 290.886 82.5252 294.801 79.9824C298.715 77.4359 302.319 76.1663 305.616 76.1663H333.681V108.944H324.67V100.805H301.445H299.231H299.228Z" stroke="#5432B9" stroke-width="1.74321" stroke-miterlimit="22.9256" stroke-linejoin="round"/>
<path d="M384.35 95.8089V100.805C383.698 102.715 382.154 104.51 379.715 106.192C377.276 107.875 374.755 108.791 372.145 108.944H348.404H339.393V100.749V76.278H348.404V100.749H367.304C369.364 100.749 371.185 100.336 372.763 99.5133C374.341 98.6905 375.185 97.4545 375.287 95.8089H384.35Z" stroke="#5432B9" stroke-width="1.74321" stroke-miterlimit="22.9256" stroke-linejoin="round"/>
<path d="M425.755 84.4723H410.513C406.944 84.4723 404.368 85.0717 402.79 86.2668C401.212 87.4656 400.419 89.558 400.419 92.5512H404.744H425.755V84.4686V84.4723ZM400.419 100.805V108.944H389.915V101.084V92.7783C390.052 86.7918 392.077 82.5252 395.992 79.9824C399.907 77.4359 403.511 76.1663 406.807 76.1663H434.872V108.944H425.861V100.805H402.636H400.423H400.419Z" stroke="#5432B9" stroke-width="1.74321" stroke-miterlimit="22.9256" stroke-linejoin="round"/>
<path fill-rule="evenodd" clip-rule="evenodd" d="M47.5281 96.8878C46.2285 96.4162 41.5936 93.6012 40.5652 92.7896C32.8838 86.7391 31.6371 77.9248 32.0456 67.9334C33.8277 68.6353 36.7615 70.4376 38.1139 71.5234C40.0933 73.1137 41.5232 74.7406 43.0939 77.3216C47.0596 83.8364 47.4471 88.1612 47.5281 96.8878ZM2.42611 36.3687C2.95088 38.4343 2.62686 55.8069 2.47189 59.0387C2.9227 58.6914 7.25469 56.008 7.6104 55.9202C8.95578 55.5912 11.9142 57.0718 13.0729 57.8542C13.1046 57.8761 13.1927 58.0114 13.2138 57.9675C13.2385 57.92 13.3124 58.0406 13.3547 58.0845C14.2669 58.2965 18.6446 60.6582 19.6132 61.4442C21.0043 61.8098 23.9804 63.6341 25.4737 64.4384C26.6676 65.0818 30.422 66.8622 30.9855 67.513L29.6507 68.3465C29.1471 68.6061 28.742 68.8291 28.2419 69.0813C26.2696 70.0794 20.9762 73.037 19.6026 73.3843C19.5674 78.762 19.1976 83.617 20.8846 88.1941C24.4136 97.7615 30.024 100.496 36.8425 104.781L46.7286 110.557L46.6194 118.413C44.9007 117.554 42.6572 116.099 40.8822 115.01L23.6423 103.593C19.9196 101.341 17.345 97.8822 15.2037 93.3562C12.5376 87.7262 13.2455 83.5804 13.1892 76.8354L2.14083 82.608C1.88725 93.4366 1.39418 99.2312 6.6947 106.47C8.95226 109.552 10.8823 110.517 14.3197 112.677C17.1478 114.454 20.0006 116.114 22.804 117.748C25.7237 119.452 28.5025 121.122 31.4046 122.932C42.6361 129.94 41.4069 129.07 49.9441 124.033C55.6708 120.655 56.3787 120.954 56.752 117.174C57.143 113.215 57.1535 106.265 57.1535 102.086C57.1535 97.4617 57.1782 92.8371 57.1747 88.2124C57.1747 82.8237 57.1923 80.4437 55.3609 76.0201C52.0502 68.0138 47.6408 65.9153 41.3717 62.5337C38.0752 60.7569 21.2438 51.5003 18.8841 50.8386C16.0736 50.0526 15.415 50.5059 13.2772 51.2261L13.3723 13.2344C10.2025 14.3202 6.70174 18.6853 4.93373 21.7709C3.15867 24.8674 1.4294 31.8428 2.42259 36.3797L2.42611 36.3687Z" stroke="#CCCCCC" stroke-width="2.38827" stroke-miterlimit="22.9256" stroke-linejoin="round"/>
<path fill-rule="evenodd" clip-rule="evenodd" d="M47.5281 96.8878C46.2285 96.4162 41.5936 93.6012 40.5652 92.7896C32.8838 86.7391 31.6371 77.9248 32.0456 67.9334C33.8277 68.6353 36.7615 70.4376 38.1139 71.5234C40.0933 73.1137 41.5232 74.7406 43.0939 77.3216C47.0596 83.8364 47.4471 88.1612 47.5281 96.8878ZM2.42611 36.3687C2.95088 38.4343 2.62686 55.8069 2.47189 59.0387C2.9227 58.6914 7.25469 56.008 7.6104 55.9202C8.95578 55.5912 11.9142 57.0718 13.0729 57.8542C13.1046 57.8761 13.1927 58.0114 13.2138 57.9675C13.2385 57.92 13.3124 58.0406 13.3547 58.0845C14.2669 58.2965 18.6446 60.6582 19.6132 61.4442C21.0043 61.8098 23.9804 63.6341 25.4737 64.4384C26.6676 65.0818 30.422 66.8622 30.9855 67.513L29.6507 68.3465C29.1471 68.6061 28.742 68.8291 28.2419 69.0813C26.2696 70.0794 20.9762 73.037 19.6026 73.3843C19.5674 78.762 19.1976 83.617 20.8846 88.1941C24.4136 97.7615 30.024 100.496 36.8425 104.781L46.7286 110.557L46.6194 118.413C44.9007 117.554 42.6572 116.099 40.8822 115.01L23.6423 103.593C19.9196 101.341 17.345 97.8822 15.2037 93.3562C12.5376 87.7262 13.2455 83.5804 13.1892 76.8354L2.14083 82.608C1.88725 93.4366 1.39418 99.2312 6.6947 106.47C8.95226 109.552 10.8823 110.517 14.3197 112.677C17.1478 114.454 20.0006 116.114 22.804 117.748C25.7237 119.452 28.5025 121.122 31.4046 122.932C42.6361 129.94 41.4069 129.07 49.9441 124.033C55.6708 120.655 56.3787 120.954 56.752 117.174C57.143 113.215 57.1535 106.265 57.1535 102.086C57.1535 97.4617 57.1782 92.8371 57.1747 88.2124C57.1747 82.8237 57.1923 80.4437 55.3609 76.0201C52.0502 68.0138 47.6408 65.9153 41.3717 62.5337C38.0752 60.7569 21.2438 51.5003 18.8841 50.8386C16.0736 50.0526 15.415 50.5059 13.2772 51.2261L13.3723 13.2344C10.2025 14.3202 6.70174 18.6853 4.93373 21.7709C3.15867 24.8674 1.4294 31.8428 2.42259 36.3797L2.42611 36.3687Z" fill="#CCCCCC"/>
<path fill-rule="evenodd" clip-rule="evenodd" d="M19.7111 46.4699C24.2016 45.066 34.9365 52.4033 39.4622 54.8052C44.016 57.2217 53.7366 61.744 56.7232 65.3524C63.3621 73.3733 62.9747 77.9651 62.9747 87.4739C62.9747 92.2631 62.9324 99.0228 62.9324 103.808C62.9324 108.294 63.4078 113.292 62.2632 117.434C63.4888 117.05 66.479 115.006 67.7539 114.253C76.034 109.358 75.879 108.74 75.8579 94.5298C75.8509 88.684 75.9002 82.8493 75.9002 77.0036C75.9002 70.6497 76.6151 67.5568 74.2061 62.5373C70.4623 54.7284 66.4966 53.2588 60.7629 50.1952C56.9627 48.1662 40.2194 38.7158 37.7153 38.3575C34.2145 37.8603 34.1581 39.1472 31.7949 40.0209L31.8477 2L19.7675 9.31171L19.7041 46.4625L19.7111 46.4699Z" stroke="#CCCCCC" stroke-width="2.38827" stroke-miterlimit="22.9256" stroke-linejoin="round"/>
<path fill-rule="evenodd" clip-rule="evenodd" d="M19.7111 46.4699C24.2016 45.066 34.9365 52.4033 39.4622 54.8052C44.016 57.2217 53.7366 61.744 56.7232 65.3524C63.3621 73.3733 62.9747 77.9651 62.9747 87.4739C62.9747 92.2631 62.9324 99.0228 62.9324 103.808C62.9324 108.294 63.4078 113.292 62.2632 117.434C63.4888 117.05 66.479 115.006 67.7539 114.253C76.034 109.358 75.879 108.74 75.8579 94.5298C75.8509 88.684 75.9002 82.8493 75.9002 77.0036C75.9002 70.6497 76.6151 67.5568 74.2061 62.5373C70.4623 54.7284 66.4966 53.2588 60.7629 50.1952C56.9627 48.1662 40.2194 38.7158 37.7153 38.3575C34.2145 37.8603 34.1581 39.1472 31.7949 40.0209L31.8477 2L19.7675 9.31171L19.7041 46.4625L19.7111 46.4699Z" fill="#CCCCCC"/>
<path fill-rule="evenodd" clip-rule="evenodd" d="M2.14453 82.6043L13.1929 76.8317L13.3584 58.0845C13.3161 58.0406 13.2386 57.9236 13.2175 57.9675C13.1929 58.015 13.1083 57.8761 13.0766 57.8542C11.9179 57.0718 8.95596 55.5949 7.6141 55.9202C7.25839 56.008 2.9264 58.6914 2.47559 59.0387L2.25723 59.0131L2.15157 82.6043H2.14453Z" fill="#CCCCCC" stroke="#CCCCCC" stroke-width="0.640617" stroke-miterlimit="22.9256"/>
<path fill-rule="evenodd" clip-rule="evenodd" d="M19.6025 73.3806C23.7549 72.3314 27.0162 68.7962 32.042 67.9334C31.482 67.2827 26.6675 65.0782 25.4736 64.4348C23.9803 63.6305 21.0043 61.8062 19.6131 61.4406L19.6025 73.3806Z" fill="#CCCCCC" stroke="#CCCCCC" stroke-width="0.640617" stroke-miterlimit="22.9256"/>
<path fill-rule="evenodd" clip-rule="evenodd" d="M47.5281 96.8878C46.2285 96.4162 41.5936 93.6012 40.5652 92.7896C32.8838 86.7391 31.6371 77.9248 32.0456 67.9334C33.8277 68.6353 36.7615 70.4376 38.1139 71.5234C40.0932 73.1137 41.5232 74.7406 43.0939 77.3216C47.0596 83.8364 47.4471 88.1612 47.5281 96.8878ZM2.42611 36.3687C2.95088 38.4343 2.62686 55.8069 2.47189 59.0387C2.9227 58.6914 7.25469 56.008 7.6104 55.9202C8.95578 55.5912 11.9142 57.0718 13.0729 57.8542C13.1046 57.8761 13.1927 58.0114 13.2138 57.9675C13.2385 57.92 13.3124 58.0406 13.3547 58.0845C14.2669 58.2965 18.6446 60.6582 19.6132 61.4442C21.0043 61.8098 23.9804 63.6341 25.4737 64.4384C26.6676 65.0818 30.422 66.8622 30.9855 67.513L29.6507 68.3465C29.1471 68.6061 28.742 68.8291 28.2419 69.0813C26.2696 70.0794 20.9762 73.037 19.6026 73.3843C19.5674 78.762 19.1976 83.617 20.8846 88.1941C24.4136 97.7615 30.024 100.496 36.8425 104.781L46.7286 110.557L46.6194 118.413C44.9007 117.554 42.6572 116.099 40.8822 115.01L23.6423 103.593C19.9196 101.341 17.345 97.8822 15.2037 93.3562C12.5376 87.7262 13.2455 83.5805 13.1892 76.8354L2.14083 82.608C1.88725 93.4366 1.39418 99.2312 6.6947 106.47C8.95226 109.552 10.8823 110.517 14.3197 112.677C17.1478 114.454 20.0006 116.114 22.804 117.748C25.7237 119.452 28.5025 121.122 31.4046 122.932C42.6361 129.94 41.4069 129.07 49.9441 124.033C55.6708 120.654 56.3787 120.954 56.752 117.174C57.143 113.215 57.1535 106.265 57.1535 102.086C57.1535 97.4617 57.1782 92.8371 57.1747 88.2124C57.1747 82.8237 57.1923 80.4437 55.3609 76.0201C52.0502 68.0138 47.6408 65.9153 41.3717 62.5337C38.0752 60.7569 21.2438 51.5003 18.8841 50.8386C16.0736 50.0526 15.415 50.5059 13.2772 51.2261L13.3723 13.2344C10.2025 14.3202 6.70174 18.6853 4.93373 21.7709C3.15867 24.8674 1.4294 31.8427 2.42259 36.3797L2.42611 36.3687Z" stroke="#5432B9" stroke-width="2.56247" stroke-miterlimit="22.9256" stroke-linejoin="round"/>
<path fill-rule="evenodd" clip-rule="evenodd" d="M47.5281 96.8878C46.2285 96.4162 41.5936 93.6012 40.5652 92.7896C32.8838 86.7391 31.6371 77.9248 32.0456 67.9334C33.8277 68.6353 36.7615 70.4376 38.1139 71.5234C40.0932 73.1137 41.5232 74.7406 43.0939 77.3216C47.0596 83.8364 47.4471 88.1612 47.5281 96.8878ZM2.42611 36.3687C2.95088 38.4343 2.62686 55.8069 2.47189 59.0387C2.9227 58.6914 7.25469 56.008 7.6104 55.9202C8.95578 55.5912 11.9142 57.0718 13.0729 57.8542C13.1046 57.8761 13.1927 58.0114 13.2138 57.9675C13.2385 57.92 13.3124 58.0406 13.3547 58.0845C14.2669 58.2965 18.6446 60.6582 19.6132 61.4442C21.0043 61.8098 23.9804 63.6341 25.4737 64.4384C26.6676 65.0818 30.422 66.8622 30.9855 67.513L29.6507 68.3465C29.1471 68.6061 28.742 68.8291 28.2419 69.0813C26.2696 70.0794 20.9762 73.037 19.6026 73.3843C19.5674 78.762 19.1976 83.617 20.8846 88.1941C24.4136 97.7615 30.024 100.496 36.8425 104.781L46.7286 110.557L46.6194 118.413C44.9007 117.554 42.6572 116.099 40.8822 115.01L23.6423 103.593C19.9196 101.341 17.345 97.8822 15.2037 93.3562C12.5376 87.7262 13.2455 83.5805 13.1892 76.8354L2.14083 82.608C1.88725 93.4366 1.39418 99.2312 6.6947 106.47C8.95226 109.552 10.8823 110.517 14.3197 112.677C17.1478 114.454 20.0006 116.114 22.804 117.748C25.7237 119.452 28.5025 121.122 31.4046 122.932C42.6361 129.94 41.4069 129.07 49.9441 124.033C55.6708 120.654 56.3787 120.954 56.752 117.174C57.143 113.215 57.1535 106.265 57.1535 102.086C57.1535 97.4617 57.1782 92.8371 57.1747 88.2124C57.1747 82.8237 57.1923 80.4437 55.3609 76.0201C52.0502 68.0138 47.6408 65.9153 41.3717 62.5337C38.0752 60.7569 21.2438 51.5003 18.8841 50.8386C16.0736 50.0526 15.415 50.5059 13.2772 51.2261L13.3723 13.2344C10.2025 14.3202 6.70174 18.6853 4.93373 21.7709C3.15867 24.8674 1.4294 31.8427 2.42259 36.3797L2.42611 36.3687Z" fill="#673EE5"/>
<path fill-rule="evenodd" clip-rule="evenodd" d="M19.7111 46.4699C24.2016 45.066 34.9365 52.4033 39.4622 54.8052C44.0161 57.2217 53.7366 61.744 56.7232 65.3524C63.3621 73.3733 62.9747 77.9651 62.9747 87.4739C62.9747 92.2631 62.9324 99.0228 62.9324 103.808C62.9324 108.294 63.4078 113.292 62.2632 117.434C63.4888 117.05 66.479 115.006 67.7539 114.253C76.034 109.358 75.879 108.74 75.8579 94.5298C75.8509 88.684 75.9002 82.8493 75.9002 77.0036C75.9002 70.6497 76.6151 67.5568 74.2061 62.5373C70.4623 54.7284 66.4966 53.2588 60.7629 50.1952C56.9627 48.1662 40.2194 38.7158 37.7153 38.3575C34.2145 37.8603 34.1581 39.1472 31.7949 40.0209L31.8477 2L19.7675 9.31172L19.7041 46.4625L19.7111 46.4699Z" stroke="#5432B9" stroke-width="2.56247" stroke-miterlimit="22.9256" stroke-linejoin="round"/>
<path fill-rule="evenodd" clip-rule="evenodd" d="M19.7111 46.4699C24.2016 45.066 34.9365 52.4033 39.4622 54.8052C44.0161 57.2217 53.7366 61.744 56.7232 65.3524C63.3621 73.3733 62.9747 77.9651 62.9747 87.4739C62.9747 92.2631 62.9324 99.0228 62.9324 103.808C62.9324 108.294 63.4078 113.292 62.2632 117.434C63.4888 117.05 66.479 115.006 67.7539 114.253C76.034 109.358 75.879 108.74 75.8579 94.5298C75.8509 88.684 75.9002 82.8493 75.9002 77.0036C75.9002 70.6497 76.6151 67.5568 74.2061 62.5373C70.4623 54.7284 66.4966 53.2588 60.7629 50.1952C56.9627 48.1662 40.2194 38.7158 37.7153 38.3575C34.2145 37.8603 34.1581 39.1472 31.7949 40.0209L31.8477 2L19.7675 9.31172L19.7041 46.4625L19.7111 46.4699Z" fill="#673EE5"/>
<path fill-rule="evenodd" clip-rule="evenodd" d="M2.14453 82.6043L13.1929 76.8317L13.3584 58.0845C13.3161 58.0406 13.2386 57.9236 13.2175 57.9675C13.1929 58.015 13.1083 57.8761 13.0766 57.8542C11.9179 57.0718 8.95596 55.5949 7.6141 55.9202C7.25839 56.008 2.9264 58.6914 2.47559 59.0387L2.25724 59.0131L2.15158 82.6043H2.14453Z" stroke="#5432B9" stroke-width="2.56247" stroke-miterlimit="22.9256" stroke-linejoin="round"/>
<path fill-rule="evenodd" clip-rule="evenodd" d="M2.14453 82.6043L13.1929 76.8317L13.3584 58.0845C13.3161 58.0406 13.2386 57.9236 13.2175 57.9675C13.1929 58.015 13.1083 57.8761 13.0766 57.8542C11.9179 57.0718 8.95596 55.5949 7.6141 55.9202C7.25839 56.008 2.9264 58.6914 2.47559 59.0387L2.25724 59.0131L2.15158 82.6043H2.14453Z" fill="#5432B9"/>
<path fill-rule="evenodd" clip-rule="evenodd" d="M19.6025 73.3842C23.7549 72.335 27.0162 68.7998 32.042 67.937C31.482 67.2863 26.6675 65.0818 25.4736 64.4384C23.9803 63.6341 21.0043 61.8098 19.6131 61.4442L19.6025 73.3842Z" stroke="#5432B9" stroke-width="2.56247" stroke-miterlimit="22.9256" stroke-linejoin="round"/>
<path fill-rule="evenodd" clip-rule="evenodd" d="M19.6025 73.3842C23.7549 72.335 27.0162 68.7998 32.042 67.937C31.482 67.2863 26.6675 65.0818 25.4736 64.4384C23.9803 63.6341 21.0043 61.8098 19.6131 61.4442L19.6025 73.3842Z" fill="#5432B9"/>
</svg>
